# xmcd
#
# Track frame offsets: 
#        150
#        18296
#        38885
#        51868
#        73351
#        88261
#        101519
#        126892
#        144763
#        163768
#        178954
#        200231
#        222194
#        237930
#
# Disc length: 3491 seconds
#
# Revision: 0
# Processed by: cddbd v1.5.2PL0 Copyright (c) Steve Scherf et al.
# Submitted via: ExactAudioCopy v1.1
#
DISCID=d20da10e
DTITLE=阎维文 - 想家的时候
DYEAR=2005
DGENRE=
TTITLE0=想家的时候
TTITLE1=母亲
TTITLE2=一二三四歌
TTITLE3=在银色的月光下
TTITLE4=都达尔和玛利亚
TTITLE5=边关雪
TTITLE6=天涯望月
TTITLE7=中国的年
TTITLE8=母亲河
TTITLE9=我的爱永远年轻
TTITLE10=升旗
TTITLE11=祖国万岁
TTITLE12=啊，三峡
TTITLE13=东方的太阳，东方的月亮
EXTD=
EXTT0=
EXTT1=
EXTT2=
EXTT3=
EXTT4=
EXTT5=
EXTT6=
EXTT7=
EXTT8=
EXTT9=
EXTT10=
EXTT11=
EXTT12=
EXTT13=
PLAYORDER=
